<?xml version="1.0" encoding="utf-8"?>
<!-- Generator: Adobe Adobe Illustrator 24.2.0, SVG Export Plug-In . SVG Version: 6.00 Build 0)  -->
<svg version="1.1" id="Layer_1" xmlns="http://www.w3.org/2000/svg" xmlns:xlink="http://www.w3.org/1999/xlink" x="0px" y="0px"
	 width="200px" height="200px" viewBox="0 0 200 200" style="enable-background:new 0 0 200 200;" xml:space="preserve">
<style type="text/css">
	.st0{fill:#361111;}
	.st1{fill:none;stroke:#EF4444;stroke-width:20;stroke-miterlimit:10;stroke-dasharray:30,8,30,8,30,8;}
</style>
<g>
	<g>
		<path class="st0" d="M70.75,79.66V41.14c0-10.94,8.9-19.84,19.84-19.84h18.83c10.94,0,19.84,8.9,19.84,19.84v38.52h18V41.14
			c0-20.86-16.97-37.84-37.84-37.84H90.59c-20.86,0-37.84,16.97-37.84,37.84v38.52H70.75z"/>
	</g>
</g>
<circle class="st1" cx="100" cy="123.13" r="60.35"/>
<g>
	<path class="st0" d="M75.21,107.34H64.89l6.24-8.47h13.72v48.51h-9.65V107.34z"/>
	<path class="st0" d="M114.64,98.16c14.4,0,20.47,11.79,20.47,25.15c0,13.36-6.22,24.79-20.47,24.79
		c-14.25,0-20.43-11.43-20.43-24.79C94.21,109.94,100.28,98.16,114.64,98.16z M104.07,123.13c0,8.57,3,16.33,10.57,16.33
		c7.61,0,10.61-7.75,10.61-16.33c0-8.32-3-16.32-10.61-16.32C107.04,106.8,104.07,114.8,104.07,123.13z"/>
</g>
</svg>
