 <svg  version="1.0" xmlns="http://www.w3.org/2000/svg"  width="300.000000pt" height="478.000000pt" viewBox="0 0 300.000000 478.000000"  preserveAspectRatio="xMidYMid meet">  <g transform="translate(0.000000,478.000000) scale(0.100000,-0.100000)" fill="#d8b4fe" stroke="none"> <path d="M2795 4734 c-16 -2 -73 -9 -125 -15 -209 -24 -548 -108 -731 -182 -420 -171 -893 -492 -1154 -785 -164 -183 -334 -426 -427 -609 -112 -219 -241 -576 -292 -804 -73 -329 -85 -878 -25 -1209 55 -309 213 -732 368 -991 90 -150 80 -141 145 -137 l55 3 -70 110 c-94 149 -155 269 -232 465 -167 420 -218 723 -204 1205 10 336 42 519 142 820 95 287 195 509 302 674 275 424 582 712 1033 970 272 156 446 228 718 297 226 58 384 83 560 91 l142 6 0 49 0 48 -87 -1 c-49 -1 -101 -4 -118 -5z"/> <path d="M2930 4573 c-685 -47 -1300 -269 -1725 -625 -122 -102 -338 -327 -429 -448 -128 -169 -298 -473 -420 -750 -75 -168 -167 -568 -197 -851 -17 -162 -6 -500 20 -654 39 -221 112 -456 221 -707 57 -130 178 -361 240 -455 l54 -83 48 0 c26 0 48 3 48 6 0 3 -20 33 -44 67 -230 326 -447 879 -498 1267 -19 148 -16 521 5 660 44 281 118 578 180 720 148 338 335 652 503 845 239 274 461 451 751 598 353 180 796 299 1198 323 l115 7 0 43 c0 30 -4 43 -12 42 -7 -1 -33 -3 -58 -5z"/> <path d="M2536 4405 c-12 -32 -19 -145 -8 -145 5 0 12 7 16 15 3 8 1 15 -4 15 -18 0 -10 25 11 39 19 11 21 11 15 -4 -7 -20 10 -55 28 -55 8 0 19 7 26 15 14 17 0 21 -17 4 -8 -8 -13 -8 -17 0 -4 6 -3 11 3 11 14 0 33 38 26 50 -4 7 -13 6 -26 0 -14 -8 -19 -7 -19 1 0 8 -5 7 -16 -2 -15 -12 -16 -10 -9 29 7 42 2 56 -9 27z m56 -87 c-7 -7 -12 -8 -12 -2 0 6 3 14 7 17 3 4 9 5 12 2 2 -3 -1 -11 -7 -17z"/> <path d="M2954 4389 c-18 -5 -46 -25 -63 -44 -24 -28 -38 -35 -66 -35 -19 0 -35 -4 -35 -10 0 -5 15 -10 34 -10 29 0 34 -4 39 -30 8 -35 42 -60 97 -67 35 -5 40 -3 40 14 0 17 -6 20 -39 19 -42 -1 -71 17 -71 44 0 14 12 19 58 26 l57 8 -55 6 -55 5 25 23 c14 13 37 26 53 29 15 3 27 12 27 19 0 16 -2 16 -46 3z"/> <path d="M2407 4339 c-8 -62 -39 -136 -45 -106 -4 19 -22 23 -22 5 0 -9 -4 -8 -10 2 -8 12 -10 9 -10 -12 0 -21 4 -27 23 -26 12 1 28 6 35 11 6 5 12 6 12 1 0 -5 8 6 17 24 13 28 18 31 25 18 10 -18 38 -22 38 -5 0 5 5 7 10 4 6 -4 10 7 10 26 0 34 -15 31 -22 -4 -5 -26 -23 -16 -20 11 4 23 -7 29 -24 12 -7 -7 -9 1 -6 24 2 18 2 42 0 52 -2 11 -7 -6 -11 -37z"/> <path d="M2498 4353 c7 -3 16 -2 19 1 4 3 -2 6 -13 5 -11 0 -14 -3 -6 -6z"/> <path d="M2190 4247 c0 -52 -5 -79 -16 -93 -15 -18 -15 -17 -10 14 4 20 2 31 -4 27 -6 -3 -10 -19 -10 -34 0 -16 -7 -34 -15 -41 -14 -11 -14 -10 -5 14 12 33 4 52 -16 35 -18 -15 -18 -53 -1 -68 10 -8 22 -3 50 23 29 27 37 30 41 17 3 -9 2 3 -1 27 -4 36 -1 48 18 68 23 24 14 34 -10 12 -11 -11 -13 -6 -8 30 3 23 1 42 -4 42 -5 0 -9 -33 -9 -73z m-73 -109 c-3 -8 -6 -5 -6 6 -1 11 2 17 5 13 3 -3 4 -12 1 -19z"/> <path d="M2051 4202 c1 -38 -1 -74 -5 -80 -3 -6 -2 -14 4 -17 6 -4 10 -14 9 -23 -1 -10 1 -24 4 -32 3 -8 8 -24 11 -35 2 -11 4 -2 3 20 0 23 2 46 6 52 4 6 2 13 -5 15 -10 4 -10 10 0 32 13 28 16 94 6 120 -3 9 -13 16 -21 16 -11 0 -14 -14 -12 -68z m29 -3 c0 -24 -4 -38 -10 -34 -5 3 -10 24 -10 46 0 24 4 38 10 34 6 -3 10 -24 10 -46z"/> <path d="M1997 4133 c-4 -3 -7 -19 -7 -33 0 -15 -7 -34 -17 -41 -15 -13 -15 -12 -5 8 13 23 7 53 -10 53 -5 0 -12 -9 -15 -19 -3 -14 -13 -19 -31 -18 -23 2 -28 -3 -30 -28 -4 -33 18 -147 25 -128 2 6 0 28 -6 47 -8 33 -8 36 11 36 11 0 22 8 25 19 3 12 11 17 23 14 10 -3 24 3 31 14 8 10 20 18 28 18 8 0 16 6 19 14 3 8 0 11 -7 7 -6 -4 -9 -2 -5 7 5 15 -19 41 -29 30z m10 -30 c-4 -3 -7 0 -7 7 0 7 3 10 7 7 3 -4 3 -10 0 -14z m-50 -25 c-3 -8 -6 -5 -6 6 -1 11 2 17 5 13 3 -3 4 -12 1 -19z m-33 -20 c3 -13 2 -26 -3 -31 -11 -11 -34 20 -27 38 8 22 23 18 30 -7z"/> <path d="M2915 4123 c-375 -32 -702 -119 -1007 -270 -206 -101 -328 -180 -463 -300 -246 -219 -434 -464 -585 -763 -215 -428 -282 -680 -282 -1075 0 -205 18 -359 62 -530 53 -207 167 -493 274 -689 121 -222 326 -488 381 -494 27 -4 26 -1 -35 65 -89 97 -191 233 -260 347 -21 34 -21 37 -4 28 10 -6 184 -107 386 -225 321 -188 372 -214 409 -214 l42 0 -29 21 c-121 88 -260 221 -375 358 -55 66 -179 249 -179 264 0 5 86 58 190 118 l191 109 62 -60 c68 -65 134 -97 244 -116 59 -10 80 -9 203 18 23 5 31 -5 108 -138 45 -79 82 -149 82 -155 0 -5 -21 -23 -47 -38 -63 -37 -220 -189 -299 -290 -35 -45 -64 -85 -64 -88 0 -20 26 4 83 77 98 124 238 255 334 311 7 4 22 -11 39 -39 24 -43 25 -47 10 -64 -11 -12 -14 -27 -10 -48 3 -18 1 -33 -5 -37 -7 -5 -11 3 -11 19 0 23 -4 26 -27 23 -23 -2 -29 1 -31 20 -4 27 -7 27 -33 3 -19 -17 -19 -23 -8 -62 7 -24 17 -50 22 -56 7 -9 5 -13 -7 -13 -9 0 -16 7 -16 15 0 18 -12 19 -28 3 -16 -16 -15 -30 3 -54 14 -19 14 -19 30 4 19 26 40 28 54 4 6 -9 11 -12 11 -7 0 6 -5 16 -11 22 -16 16 -4 44 16 37 20 -8 19 5 -1 27 -9 10 -14 24 -11 31 3 8 9 2 16 -14 13 -35 39 -36 47 -3 10 40 56 35 83 -10 l20 -35 -47 -31 c-72 -49 -156 -123 -144 -127 6 -2 39 20 74 48 35 28 78 59 95 70 l33 19 41 -69 c29 -49 47 -70 61 -70 21 0 25 -8 -54 127 l-19 32 29 15 c112 58 309 116 395 116 26 0 47 5 47 10 0 16 -99 11 -186 -9 -86 -21 -144 -42 -237 -86 -32 -15 -59 -26 -61 -24 -2 3 -120 207 -133 231 -5 10 121 68 221 102 110 38 207 56 307 56 76 0 89 2 89 16 0 15 -11 16 -97 10 -157 -11 -288 -46 -446 -119 -48 -22 -89 -38 -91 -36 -13 15 -166 287 -166 295 1 5 18 21 39 36 49 33 97 103 123 176 28 76 35 229 15 295 -15 45 -14 48 6 62 28 20 32 19 44 -8 18 -38 113 -136 177 -181 113 -81 217 -123 349 -141 43 -7 47 -5 47 13 0 20 -24 32 -65 32 -36 0 -96 21 -89 31 3 6 -4 7 -18 4 -25 -6 -168 58 -168 76 0 5 -7 9 -15 9 -9 0 -51 35 -94 78 -132 131 -192 288 -194 507 -1 205 42 315 178 451 64 65 97 89 166 123 87 42 193 71 262 71 32 0 37 3 37 24 0 22 -3 24 -42 19 -185 -20 -334 -87 -448 -202 -42 -42 -84 -89 -95 -105 l-20 -28 -98 57 c-98 58 -120 76 -99 83 7 2 12 13 12 23 0 11 5 17 10 14 6 -3 10 3 10 15 0 12 5 18 10 15 6 -3 10 -2 10 2 0 5 -10 14 -21 21 -20 13 -21 12 -15 -12 4 -16 2 -26 -4 -26 -6 0 -8 5 -5 10 3 6 2 10 -3 10 -17 0 -21 -13 -11 -31 8 -15 6 -17 -7 -12 -14 5 -16 2 -12 -15 6 -23 -4 -21 -60 11 l-33 19 22 36 c67 115 130 323 150 496 l12 106 190 -2 190 -3 13 -61 c17 -86 65 -175 129 -238 44 -45 67 -59 121 -76 82 -25 94 -25 94 0 0 11 -6 20 -13 20 -44 0 -120 35 -166 76 -104 93 -152 246 -116 370 44 153 136 248 283 290 6 2 12 13 12 24 0 17 -4 19 -27 14 -139 -33 -265 -160 -303 -304 -6 -25 -14 -53 -16 -63 -5 -16 -21 -17 -197 -15 l-192 3 -3 70 c-5 146 -42 299 -109 449 -33 76 -40 101 -31 108 40 25 289 113 392 138 137 33 325 60 422 60 36 0 64 4 64 10 0 24 -270 0 -452 -40 -49 -11 -129 -33 -180 -49 -50 -17 -87 -26 -82 -22 5 5 164 95 354 201 350 195 368 206 358 215 -2 3 -451 -245 -997 -551 -546 -306 -994 -554 -997 -552 -8 9 129 199 219 304 178 208 364 365 571 481 322 181 680 290 1071 325 119 11 135 14 135 30 0 12 -7 17 -22 16 -13 -1 -41 -3 -63 -5z m-788 -660 c19 -42 44 -101 54 -131 29 -83 59 -255 59 -333 l0 -69 -129 0 c-72 0 -132 3 -134 8 -3 4 -10 50 -16 102 -15 118 -33 193 -72 293 -22 55 -28 82 -21 89 17 17 196 117 210 117 7 1 29 -34 49 -76z m-260 -128 c35 -87 62 -197 72 -300 5 -49 8 -91 6 -93 -4 -5 -568 -2 -573 3 -8 7 121 158 212 248 100 100 233 210 248 205 6 -2 21 -31 35 -63z m-308 -142 c-69 -71 -147 -156 -173 -190 l-49 -63 -165 0 c-91 0 -163 2 -161 4 6 7 663 376 668 376 3 0 -52 -57 -120 -127z m-302 -289 l51 -7 -36 -56 c-20 -31 -37 -58 -39 -60 -3 -4 -213 119 -213 125 0 6 180 4 237 -2z m689 -76 c-8 -91 -37 -203 -75 -296 -53 -128 -18 -134 -335 58 -153 93 -280 171 -283 174 -2 2 14 34 37 70 l42 66 310 0 311 0 -7 -72z m114 52 c11 -11 27 -20 35 -20 8 0 20 9 27 20 10 16 24 20 66 20 l54 0 -7 -62 c-34 -325 -147 -585 -334 -767 -89 -87 -203 -179 -268 -218 -44 -25 -46 -26 -59 -8 -8 10 -21 39 -30 64 -10 25 -22 51 -29 56 -6 6 -21 26 -33 46 l-22 36 62 39 c80 49 218 181 270 258 94 137 161 323 175 481 l6 75 33 0 c21 0 42 -8 54 -20z m50 -2 c0 -6 -7 -7 -16 -4 -9 3 -20 6 -25 6 -6 0 -8 4 -5 9 8 12 46 2 46 -11z m-978 -67 l88 -52 -36 -71 c-26 -51 -38 -68 -44 -57 -4 8 -37 67 -74 133 -36 65 -66 121 -66 123 0 3 10 -1 23 -9 12 -8 61 -38 109 -67z m-192 -1096 c-6 -637 -12 -1160 -13 -1162 -7 -7 -116 237 -167 371 -57 154 -101 311 -127 461 -27 153 -24 528 5 688 27 148 63 273 118 408 44 112 184 402 190 397 2 -2 -1 -525 -6 -1163z m181 846 c-28 -53 -89 -237 -122 -366 l-37 -150 -1 121 c-1 66 2 250 6 407 l6 287 78 -141 c57 -102 76 -146 70 -158z m405 13 c151 -92 274 -170 274 -174 0 -3 -14 -27 -30 -52 -64 -97 -298 -295 -320 -271 -5 4 -72 123 -150 263 l-142 255 37 73 c20 39 41 72 47 72 5 0 133 -75 284 -166z m-248 -265 c72 -129 132 -241 134 -248 7 -29 -236 -110 -381 -126 l-64 -7 8 48 c14 101 65 308 101 412 35 103 62 168 68 160 2 -1 62 -109 134 -239z m846 -115 c29 -30 38 -44 25 -41 -13 4 -23 -3 -34 -25 -14 -29 -13 -48 4 -48 4 0 19 18 33 40 22 33 24 41 12 51 -27 22 -14 29 19 10 104 -58 197 -114 197 -119 0 -2 -11 -35 -24 -72 -64 -176 -58 -392 16 -579 27 -70 28 -74 11 -87 -25 -19 -26 -19 -60 30 -97 137 -324 186 -523 112 -11 -4 -38 37 -105 159 -49 91 -90 170 -90 175 0 5 27 26 61 48 133 86 326 270 381 363 10 16 21 29 25 29 5 0 28 -21 52 -46z m11 16 c3 -5 2 -10 -4 -10 -5 0 -13 5 -16 10 -3 6 -2 10 4 10 5 0 13 -4 16 -10z m2 -82 c-3 -8 -6 -5 -6 6 -1 11 2 17 5 13 3 -3 4 -12 1 -19z m-680 -143 c18 -33 20 -40 7 -49 -12 -9 -12 -16 -2 -38 15 -31 26 -35 35 -12 4 11 12 4 29 -26 13 -23 24 -45 24 -50 0 -13 -152 -77 -245 -104 -98 -27 -172 -41 -278 -50 l-68 -7 3 128 3 127 88 13 c111 16 224 47 302 83 33 16 65 27 70 26 6 -1 20 -20 32 -41z m216 -391 c42 -77 77 -143 77 -145 0 -3 -31 -36 -68 -74 -81 -83 -101 -130 -109 -260 -4 -76 -2 -100 16 -150 12 -33 22 -64 24 -68 2 -7 -365 -227 -378 -227 -8 0 -86 154 -132 260 -104 239 -142 396 -143 576 l0 121 110 12 c164 17 341 68 465 133 35 19 22 35 138 -178z m487 -165 c77 -36 124 -80 157 -147 25 -52 28 -67 27 -162 0 -84 -5 -116 -22 -161 -49 -123 -121 -186 -246 -214 -125 -29 -253 6 -348 93 -98 91 -132 193 -109 327 15 84 37 127 93 184 81 82 165 111 303 108 72 -2 101 -8 145 -28z m-1106 -434 c26 -66 72 -167 102 -224 30 -58 54 -108 54 -111 0 -7 -242 -150 -254 -150 -8 0 -8 472 1 635 l6 129 22 -79 c11 -44 43 -134 69 -200z m254 -480 c101 -151 239 -306 370 -414 56 -46 102 -86 102 -88 0 -5 -25 9 -452 259 -191 112 -349 207 -350 213 -2 8 243 158 248 152 1 -1 38 -56 82 -122z m1089 -257 c-3 -8 -6 -5 -6 6 -1 11 2 17 5 13 3 -3 4 -12 1 -19z m33 -4 c0 -8 -5 -12 -10 -9 -6 4 -8 11 -5 16 9 14 15 11 15 -7z m-116 -76 c-12 -19 -24 -5 -24 25 l1 32 13 -25 c8 -14 12 -28 10 -32z m-67 -60 c-3 -7 -5 -2 -5 12 0 14 2 19 5 13 2 -7 2 -19 0 -25z"/> <path d="M1970 3406 c34 -14 34 -14 8 -15 -16 -1 -28 -5 -28 -9 0 -9 127 2 137 12 11 11 -1 14 -77 20 -72 6 -74 6 -40 -8z m77 -13 c-4 -3 -10 -3 -14 0 -3 4 0 7 7 7 7 0 10 -3 7 -7z"/> <path d="M1935 3351 c-17 -7 -14 -9 15 -12 27 -3 35 -9 35 -23 0 -11 6 -21 13 -24 6 -2 12 1 12 6 0 14 37 3 52 -16 11 -13 10 -14 -9 -8 -13 4 -30 3 -38 -2 -14 -7 -14 -11 3 -33 11 -13 17 -30 15 -36 -3 -9 7 -13 31 -13 20 0 36 4 36 8 0 14 -23 32 -41 32 -9 0 -23 7 -30 17 -13 15 -11 16 24 10 39 -6 43 -2 27 23 -7 12 -3 16 23 21 29 6 28 6 -13 8 -25 1 -52 6 -60 12 -11 8 0 9 43 6 31 -2 57 0 57 5 0 12 -16 16 -100 22 -41 2 -84 1 -95 -3z m140 -141 c3 -5 -1 -10 -10 -10 -9 0 -13 5 -10 10 3 6 8 10 10 10 2 0 7 -4 10 -10z"/> <path d="M2060 3099 c-19 -4 -12 -8 31 -13 75 -11 106 -3 43 9 -27 6 -61 8 -74 4z"/> <path d="M2060 3070 c0 -4 10 -12 23 -18 22 -11 22 -11 1 -11 -24 -1 -40 -39 -24 -55 7 -7 10 -6 10 2 0 9 5 10 19 3 18 -10 31 -6 31 10 0 4 -12 12 -27 17 l-28 10 29 1 c21 1 27 5 22 17 -4 12 -1 14 14 10 61 -17 65 -18 55 -8 -12 13 -125 32 -125 22z"/> <path d="M2066 2853 c-11 -11 -6 -53 6 -53 6 0 1 -11 -12 -25 -16 -17 -30 -23 -43 -19 -13 4 -17 2 -13 -5 4 -6 13 -11 21 -11 20 0 29 -19 16 -34 -6 -7 -14 -35 -18 -61 -5 -43 -4 -48 11 -42 11 5 26 -2 43 -21 17 -17 24 -21 20 -9 -6 15 -4 16 14 6 11 -6 23 -8 26 -5 3 2 -18 16 -45 30 -28 14 -53 30 -57 36 -9 14 18 13 33 -2 8 -8 12 -8 12 -1 0 6 -10 17 -22 26 -13 8 -19 19 -15 23 5 5 13 1 18 -9 6 -9 14 -17 19 -17 16 0 11 28 -6 38 -12 6 -13 11 -5 16 6 4 22 -6 37 -23 27 -32 64 -42 64 -16 0 8 -19 25 -42 37 -43 22 -49 24 -68 27 -5 0 -10 6 -10 12 0 5 5 7 10 4 6 -3 10 -1 10 6 0 10 3 10 12 1 16 -16 48 -15 48 1 0 7 -13 23 -30 35 -16 13 -30 28 -30 34 0 6 8 4 18 -5 22 -20 32 -21 32 -4 0 15 -44 39 -54 30z m49 -83 c3 -5 2 -10 -4 -10 -5 0 -13 5 -16 10 -3 6 -2 10 4 10 5 0 13 -4 16 -10z m41 -97 c-7 -7 -46 16 -46 28 0 5 11 2 25 -7 14 -9 24 -19 21 -21z"/> <path d="M1984 2515 c-4 -8 -4 -22 -1 -29 4 -11 1 -13 -10 -9 -13 5 -13 2 3 -22 18 -27 18 -28 -4 -21 -13 4 -22 3 -22 -3 0 -5 -3 -18 -7 -28 -3 -10 -3 -15 2 -11 4 4 15 2 23 -5 13 -10 14 -9 8 9 -5 16 -2 20 18 19 14 0 31 -6 38 -12 6 -7 16 -13 22 -13 5 0 -6 16 -25 37 -18 20 -29 33 -23 30 20 -12 26 24 7 40 -17 13 -16 14 7 8 24 -6 24 -5 6 9 -25 20 -35 20 -42 1z"/> <path d="M1930 2356 c0 -8 -7 -16 -15 -20 -9 -3 -14 -17 -14 -33 2 -24 2 -25 6 -5 2 12 9 22 14 22 6 0 8 -4 5 -9 -9 -14 4 -41 19 -41 7 0 16 11 19 25 4 14 10 25 15 25 5 0 16 -11 25 -25 9 -14 21 -25 27 -25 6 0 -9 23 -32 50 -41 49 -69 64 -69 36z m35 -36 c-10 -16 -35 7 -28 27 5 13 7 13 21 0 8 -8 11 -20 7 -27z m-18 -37 c-4 -3 -7 0 -7 7 0 7 3 10 7 7 3 -4 3 -10 0 -14z"/> <path d="M2000 2350 c0 -5 5 -10 10 -10 6 0 10 5 10 10 0 6 -4 10 -10 10 -5 0 -10 -4 -10 -10z"/> <path d="M1793 2262 c21 -23 22 -51 2 -58 -8 -4 -15 -12 -15 -20 0 -8 -8 -14 -17 -14 -17 -1 -17 -1 0 -11 9 -5 26 -28 38 -51 11 -22 23 -38 25 -35 3 3 -1 19 -10 35 -14 27 -14 31 0 36 12 5 14 14 10 34 l-6 27 14 -25 c8 -14 17 -23 21 -22 4 2 10 0 13 -4 4 -4 1 -4 -5 0 -20 11 -15 -9 7 -29 36 -32 34 -7 -3 54 -21 32 -37 70 -37 83 0 16 -3 19 -9 9 -6 -9 -11 -10 -15 -2 -4 6 -12 11 -18 11 -6 0 -4 -8 5 -18z m20 -87 c4 -8 2 -17 -3 -20 -6 -4 -10 -4 -10 -1 0 2 -3 11 -6 20 -3 9 -2 16 4 16 5 0 12 -7 15 -15z"/> <path d="M1725 2130 c-3 -6 -3 -20 1 -33 6 -19 5 -20 -10 -8 -9 8 -17 12 -19 10 -23 -40 -27 -53 -22 -70 4 -11 2 -19 -4 -19 -6 0 -11 7 -11 16 0 9 -7 14 -17 12 -26 -5 -22 -32 5 -36 12 -2 20 -8 17 -13 -4 -5 -1 -9 4 -9 6 0 11 7 11 15 0 8 4 15 9 15 5 0 7 10 4 23 -5 22 -5 22 12 2 16 -20 16 -17 0 30 -6 17 -3 16 15 -5 15 -17 20 -19 16 -8 -3 10 -1 28 3 40 9 23 9 23 24 -22 3 -8 6 -4 6 11 1 14 -5 31 -11 39 -11 12 -10 12 4 1 10 -7 23 -28 30 -47 6 -19 16 -34 20 -34 9 0 -6 41 -28 75 -17 25 -48 33 -59 15z m-78 -117 c-4 -3 -7 0 -7 7 0 7 3 10 7 7 3 -4 3 -10 0 -14z"/> <path d="M1546 1970 c4 -14 7 -33 6 -42 0 -10 3 -18 8 -18 5 0 12 -9 15 -20 3 -11 11 -20 16 -20 5 0 3 13 -5 29 -9 16 -12 32 -8 35 3 4 2 10 -4 14 -6 4 -16 16 -23 27 -11 18 -11 18 -5 -5z"/> <path d="M2080 2087 c25 -24 54 -47 64 -50 11 -4 -4 15 -32 43 -28 27 -57 50 -64 50 -7 0 7 -20 32 -43z"/> <path d="M2025 2020 c3 -5 8 -10 11 -10 3 0 2 5 -1 10 -3 6 -8 10 -11 10 -3 0 -2 -4 1 -10z"/> <path d="M2079 2001 c7 -5 10 -14 7 -20 -4 -6 -2 -11 3 -11 6 0 11 9 11 20 0 12 -7 20 -17 20 -14 0 -15 -2 -4 -9z"/> <path d="M2038 1941 c32 -32 38 -57 8 -32 -12 10 -15 9 -14 -6 0 -10 -1 -25 -3 -33 -3 -9 5 -16 19 -18 20 -3 23 0 18 16 -4 11 -2 23 4 27 6 4 8 15 5 25 -4 12 0 20 12 24 13 3 12 4 -4 3 -12 -1 -29 7 -38 18 -9 11 -14 14 -10 8 7 -14 -5 -17 -21 -5 -5 4 5 -8 24 -27z m17 -71 c3 -5 1 -10 -4 -10 -6 0 -11 5 -11 10 0 6 2 10 4 10 3 0 8 -4 11 -10z"/> <path d="M2028 1828 c5 -5 16 -8 23 -6 8 3 3 7 -10 11 -17 4 -21 3 -13 -5z"/> <path d="M2010 1792 c0 -12 4 -24 10 -27 6 -3 7 1 4 9 -3 9 -1 16 5 16 5 0 9 -13 8 -28 -1 -16 -7 -29 -14 -29 -7 0 -10 4 -7 9 3 4 0 8 -5 8 -14 0 -14 -17 -1 -25 8 -5 7 -11 -1 -21 -9 -11 -8 -18 2 -30 16 -19 69 -47 76 -40 3 3 -6 10 -21 15 -28 11 -29 16 -17 99 4 28 4 52 0 52 -4 0 -14 3 -23 6 -11 4 -16 0 -16 -14z m20 -113 c0 -6 -4 -7 -10 -4 -5 3 -10 11 -10 16 0 6 5 7 10 4 6 -3 10 -11 10 -16z"/> <path d="M2005 1630 c-4 -7 -2 -17 5 -23 10 -9 11 -9 5 2 -5 10 -4 12 4 7 6 -4 9 -11 6 -16 -3 -4 2 -13 10 -20 13 -11 15 -8 15 20 0 19 -3 30 -7 27 -3 -4 -12 -2 -19 4 -8 7 -14 7 -19 -1z"/> <path d="M1983 1577 c15 -14 27 -32 27 -39 0 -9 3 -9 10 2 7 12 12 12 22 2 22 -22 28 -12 6 13 -11 13 -25 22 -30 19 -4 -3 -8 0 -8 7 0 7 -3 9 -6 6 -4 -3 -16 -1 -28 5 -16 8 -14 5 7 -15z"/> <path d="M1317 1933 c-4 -3 -4 -22 -1 -40 5 -28 4 -32 -10 -27 -12 5 -15 2 -10 -10 7 -19 -7 -21 -24 -4 -8 8 -15 9 -20 3 -4 -6 -18 -11 -32 -11 -24 -2 -25 1 -22 38 4 35 2 39 -14 36 -16 -3 -19 -13 -20 -58 -1 -58 -9 -95 -28 -120 -6 -9 -1 -6 11 7 27 28 33 29 33 3 0 -11 5 -20 11 -20 7 0 8 7 4 18 -14 37 -17 72 -6 72 6 0 11 -11 11 -25 0 -14 5 -25 11 -25 7 0 8 11 4 30 -4 18 -3 30 4 30 5 0 11 -15 13 -32 4 -39 23 -35 24 4 0 40 10 44 18 8 8 -44 41 -38 41 8 0 37 6 41 20 10 6 -12 15 -23 22 -25 19 -7 26 36 10 61 -8 12 -17 33 -19 46 -3 24 -19 36 -31 23z m23 -24 c0 -5 -4 -9 -10 -9 -5 0 -10 7 -10 16 0 8 5 12 10 9 6 -3 10 -10 10 -16z m-159 -52 c-8 -8 -11 -4 -11 14 0 33 14 47 18 19 2 -12 -1 -27 -7 -33z m184 -15 c0 -18 -20 -15 -23 4 -3 10 1 15 10 12 7 -3 13 -10 13 -16z m-65 -33 c0 -11 -4 -17 -10 -14 -5 3 -10 13 -10 21 0 8 5 14 10 14 6 0 10 -9 10 -21z"/> <path d="M1901 1391 c-18 -11 -5 -31 20 -31 15 0 19 -7 19 -38 l0 -38 -62 -12 c-69 -13 -120 -47 -153 -103 -29 -49 -28 -168 2 -226 63 -117 197 -149 321 -77 35 21 50 38 71 85 22 48 30 58 51 59 35 0 48 -11 46 -39 -2 -34 22 -38 34 -5 20 53 11 67 -55 81 -33 7 -65 10 -72 8 -7 -2 -17 -21 -22 -42 -27 -96 -88 -143 -188 -143 -61 0 -101 18 -129 58 -14 20 -11 23 58 63 40 23 79 46 85 52 10 7 12 0 10 -29 -1 -28 2 -39 12 -39 18 0 68 132 55 144 -5 5 -40 11 -79 13 -60 3 -70 1 -73 -15 -3 -13 5 -19 29 -24 32 -6 32 -6 -42 -44 -41 -21 -80 -38 -86 -39 -19 0 -16 81 3 130 22 55 61 80 147 94 l72 12 3 77 3 77 -33 0 c-18 0 -39 -4 -47 -9z"/> <path d="M1717 4030 c-10 -16 -15 -30 -10 -30 4 0 16 14 25 30 9 17 14 30 10 30 -4 0 -16 -13 -25 -30z"/> <path d="M1742 3992 c-7 -2 -12 -17 -12 -32 0 -36 -17 -49 -23 -18 -4 20 -4 19 -6 -4 0 -16 3 -28 8 -28 23 0 41 14 41 30 0 10 8 20 18 22 16 3 16 4 2 19 -9 8 -22 13 -28 11z"/> <path d="M1610 3881 c0 -36 -14 -33 -23 4 -4 16 -5 14 -6 -6 0 -15 6 -32 14 -39 12 -10 17 -8 26 13 8 18 8 30 0 43 -9 16 -10 14 -11 -15z"/> <path d="M1537 3859 c-8 -29 2 -49 24 -49 21 0 25 21 9 51 -14 25 -26 24 -33 -2z m33 -31 c0 -5 -4 -8 -10 -8 -5 0 -10 10 -10 23 0 18 2 19 10 7 5 -8 10 -18 10 -22z"/> <path d="M1506 3838 c3 -18 7 -39 10 -45 2 -7 -1 -13 -6 -13 -5 0 -11 15 -13 33 l-4 32 -1 -33 c-2 -25 5 -41 27 -63 35 -35 47 -38 27 -6 -7 12 -17 43 -20 69 -4 26 -11 50 -16 53 -6 4 -7 -8 -4 -27z"/> <path d="M1402 3773 c-6 -10 -6 -26 -2 -39 9 -22 4 -34 -11 -34 -5 0 -6 6 -3 13 3 8 -2 20 -10 27 -13 10 -17 9 -25 -11 -11 -32 6 -73 24 -56 8 7 27 23 44 36 28 21 45 51 21 36 -5 -3 -10 3 -10 14 0 27 -17 35 -28 14z m15 -25 c-3 -8 -6 -5 -6 6 -1 11 2 17 5 13 3 -3 4 -12 1 -19z m-50 -40 c-3 -8 -6 -5 -6 6 -1 11 2 17 5 13 3 -3 4 -12 1 -19z"/> <path d="M1220 3764 c0 -20 39 -112 62 -146 10 -14 18 -29 18 -32 0 -12 -28 -6 -40 9 -18 22 -30 18 -30 -8 0 -16 -6 -23 -20 -23 -14 0 -25 13 -37 45 -9 24 -19 39 -21 33 -4 -14 57 -152 68 -152 4 0 13 11 20 25 7 14 16 23 18 20 3 -3 16 4 28 16 25 23 32 17 45 -35 6 -28 7 -28 8 -6 1 14 -10 46 -24 72 -14 27 -25 64 -25 85 0 25 -9 52 -25 76 -27 39 -45 48 -45 21z m39 -38 c12 -18 21 -42 21 -52 -1 -18 -1 -18 -11 -1 -16 27 -40 87 -35 87 2 0 14 -15 25 -34z m-12 -153 c-4 -3 -7 0 -7 7 0 7 3 10 7 7 3 -4 3 -10 0 -14z m20 -20 c-4 -3 -7 0 -7 7 0 7 3 10 7 7 3 -4 3 -10 0 -14z m-37 -19 c0 -9 -5 -14 -12 -12 -18 6 -21 28 -4 28 9 0 16 -7 16 -16z"/> <path d="M1311 3672 c-12 -23 9 -59 27 -48 16 10 15 41 -2 55 -12 10 -17 8 -25 -7z m29 -23 c0 -5 -4 -9 -10 -9 -5 0 -10 7 -10 16 0 8 5 12 10 9 6 -3 10 -10 10 -16z"/> <path d="M1100 3485 c-9 -11 -8 -19 4 -37 9 -12 16 -29 15 -38 0 -10 -4 -7 -11 8 -6 12 -17 22 -25 22 -20 0 -28 -29 -15 -51 15 -23 15 -49 1 -49 -5 0 -7 4 -4 10 7 12 -12 50 -26 50 -6 0 -8 -11 -4 -29 6 -26 4 -29 -14 -24 -23 6 -27 -7 -10 -38 9 -19 9 -19 -10 -10 -30 17 -33 14 -16 -19 21 -41 19 -57 -4 -36 -11 10 -25 15 -30 11 -17 -10 -13 -40 8 -59 21 -19 41 -14 41 10 0 8 5 14 10 14 6 0 10 -6 10 -14 0 -8 5 -18 12 -22 8 -5 9 -2 4 11 -3 10 -9 34 -12 54 l-5 36 26 -37 c14 -21 30 -38 36 -38 5 0 -2 15 -16 34 -17 22 -22 37 -15 41 6 4 8 15 5 26 -4 12 -2 19 7 19 17 0 68 61 68 81 0 9 7 20 15 23 14 5 14 9 0 36 -17 34 -27 37 -45 15z m30 -21 c0 -8 -5 -12 -10 -9 -6 4 -8 11 -5 16 9 14 15 11 15 -7z m-30 -74 c0 -12 -3 -12 -16 2 -9 9 -13 21 -9 28 9 14 25 -5 25 -30z m-60 -83 c0 -20 0 -20 -15 -1 -19 25 -19 35 0 28 8 -4 15 -16 15 -27z m-62 -79 c16 -16 15 -28 -3 -28 -8 0 -15 2 -15 4 0 2 -3 11 -6 20 -7 19 7 21 24 4z"/> <path d="M2959 3160 c-43 -23 -117 -103 -125 -136 -5 -19 -9 -22 -24 -14 -43 23 -57 -7 -18 -34 36 -26 57 -20 74 21 23 54 59 97 99 119 24 13 35 26 35 41 0 13 -1 23 -2 23 -2 -1 -19 -10 -39 -20z"/> <path d="M681 3143 c-39 -39 -48 -76 -30 -127 20 -56 61 -73 115 -46 21 11 39 18 41 16 3 -2 -10 -29 -27 -60 -25 -43 -28 -56 -17 -56 9 0 28 22 44 50 15 27 30 50 33 50 3 0 13 -7 23 -14 15 -12 16 -18 8 -35 -14 -25 -14 -41 -1 -41 17 0 73 121 61 133 -7 7 -14 2 -22 -16 -14 -30 -17 -32 -41 -14 -15 12 -13 18 17 67 31 50 35 70 17 70 -4 0 -20 -22 -35 -50 -15 -27 -31 -51 -35 -54 -4 -2 -8 22 -7 54 0 70 -14 89 -73 97 -36 5 -45 2 -71 -24z m107 -15 c7 -7 12 -29 12 -51 0 -29 -7 -46 -29 -68 -35 -34 -54 -36 -81 -9 -28 28 -27 87 2 117 24 25 76 31 96 11z"/> <path d="M2973 3072 c-58 -46 -82 -153 -48 -212 8 -14 17 -31 21 -38 8 -15 -44 -132 -58 -132 -5 0 -19 5 -30 11 -15 8 -23 8 -32 -1 -8 -9 -4 -17 19 -36 45 -36 83 -50 98 -35 9 9 7 16 -10 29 l-22 17 45 68 c24 37 44 73 44 81 0 7 -11 23 -25 36 -35 33 -35 103 1 155 14 21 24 46 22 56 -3 17 -4 17 -25 1z"/> <path d="M640 2842 c0 -12 48 -75 65 -85 8 -4 15 -15 15 -25 0 -11 -16 0 -50 33 -27 27 -52 47 -55 44 -2 -3 16 -25 40 -49 48 -47 58 -68 25 -50 -26 14 -39 -12 -19 -37 12 -14 11 -15 -9 -9 -15 5 -22 3 -22 -5 0 -7 -18 4 -40 26 -22 21 -42 36 -45 34 -2 -3 13 -23 35 -44 33 -32 38 -42 33 -68 -6 -28 -4 -30 20 -25 15 3 27 1 27 -3 0 -5 -5 -9 -11 -9 -5 0 -7 -5 -3 -11 3 -6 10 -7 14 -2 12 13 21 63 11 63 -5 0 -12 7 -15 16 -6 15 -4 15 10 3 14 -11 18 -10 27 6 6 11 12 22 12 25 1 3 10 24 22 47 l20 41 -23 6 c-13 4 -36 24 -50 46 -27 40 -34 47 -34 32z m50 -163 c0 -6 -4 -7 -10 -4 -5 3 -10 11 -10 16 0 6 5 7 10 4 6 -3 10 -11 10 -16z m-40 -81 c-13 -5 -25 -6 -29 -3 -9 10 21 24 37 17 12 -4 10 -7 -8 -14z"/> <path d="M2556 2675 c12 -65 13 -96 4 -90 -6 4 -10 1 -10 -5 0 -6 -4 -8 -10 -5 -5 3 -10 11 -10 16 0 6 4 8 9 5 5 -3 11 1 15 9 7 19 -8 20 -23 1 -13 -16 -4 -46 14 -46 7 0 18 7 25 15 7 9 15 13 18 10 9 -9 32 17 32 37 0 16 3 18 13 9 14 -11 27 -5 27 11 0 5 -5 6 -12 2 -7 -4 -8 -3 -4 4 11 17 49 15 43 -2 -4 -10 0 -12 14 -9 18 5 19 6 2 19 -10 7 -24 14 -31 14 -8 0 -10 5 -6 12 4 7 -6 3 -22 -9 -16 -11 -39 -23 -51 -27 -19 -6 -24 -2 -32 26 -10 31 -10 31 -5 3z m54 -55 c0 -5 -4 -10 -10 -10 -5 0 -10 5 -10 10 0 6 5 10 10 10 6 0 10 -4 10 -10z"/> <path d="M2459 2613 c6 -12 11 -26 11 -31 0 -18 -33 -6 -41 14 -7 18 -8 18 -8 -1 0 -11 3 -27 9 -35 6 -9 5 -19 -2 -28 -13 -15 -17 -62 -6 -62 4 0 8 5 8 10 0 6 4 10 9 10 6 0 9 -12 8 -27 -1 -20 3 -28 17 -31 16 -3 18 0 12 19 -4 13 -9 35 -11 49 -1 14 -6 32 -9 41 -8 19 21 22 44 5 13 -10 13 -9 1 6 -7 10 -11 24 -7 33 3 8 1 14 -4 12 -5 -1 -16 7 -25 18 -16 20 -16 20 -6 -2z m-19 -103 c0 -5 -2 -10 -4 -10 -3 0 -8 5 -11 10 -3 6 -1 10 4 10 6 0 11 -4 11 -10z m30 -61 c0 -6 -4 -7 -10 -4 -5 3 -10 11 -10 16 0 6 5 7 10 4 6 -3 10 -11 10 -16z"/> <path d="M2375 2541 c-3 -5 -1 -12 5 -16 5 -3 10 1 10 9 0 18 -6 21 -15 7z"/> <path d="M2470 2540 c0 -5 5 -10 11 -10 5 0 7 5 4 10 -3 6 -8 10 -11 10 -2 0 -4 -4 -4 -10z"/> <path d="M2301 2509 c-2 -15 41 -99 49 -99 6 0 10 14 10 31 0 25 3 29 19 24 22 -7 34 15 20 36 -7 11 -9 10 -10 -6 0 -11 -3 -14 -6 -7 -7 17 -23 15 -23 -3 0 -23 -36 -18 -48 8 -6 12 -11 19 -11 16z m49 -64 c0 -8 -2 -15 -4 -15 -2 0 -6 7 -10 15 -3 8 -1 15 4 15 6 0 10 -7 10 -15z"/> <path d="M446 2438 c-9 -12 -16 -29 -16 -36 0 -8 -6 -12 -15 -8 -19 7 -19 5 0 -30 8 -16 15 -37 15 -47 0 -24 28 -77 41 -77 5 0 3 10 -5 22 -30 43 -19 50 35 22 28 -14 53 -23 55 -21 3 2 -19 17 -48 32 -59 30 -74 42 -66 50 3 4 28 -8 56 -24 61 -38 73 -39 41 -5 l-24 27 24 -13 c21 -11 26 -10 38 6 7 10 13 26 13 36 0 22 8 22 34 3 23 -17 36 -19 36 -6 0 5 -9 12 -20 16 -11 3 -38 22 -61 41 -45 38 -66 39 -27 2 13 -13 19 -20 14 -15 -6 4 -17 7 -25 7 -13 -1 -13 -2 1 -11 10 -5 23 -20 29 -32 l12 -22 -25 23 c-13 12 -27 22 -31 22 -13 0 -7 -23 11 -43 16 -19 16 -20 -4 -9 -15 8 -24 8 -32 0 -14 -14 -62 15 -62 37 0 31 20 64 42 68 22 4 22 4 1 6 -12 0 -29 -9 -37 -21z"/> <path d="M501 2424 c0 -11 3 -14 6 -6 3 7 2 16 -1 19 -3 4 -6 -2 -5 -13z"/> <path d="M2247 2433 c-4 -3 -7 -13 -7 -22 1 -13 3 -13 11 2 11 19 8 33 -4 20z"/> <path d="M2277 2403 c-4 -3 -7 -15 -7 -25 0 -13 -4 -17 -12 -12 -9 5 -9 3 1 -9 18 -22 33 -12 25 19 -7 26 4 31 26 12 12 -11 12 -10 1 5 -14 18 -24 21 -34 10z"/> <path d="M2946 2333 c-3 -3 -18 -8 -33 -9 -15 -2 -29 -8 -31 -14 -3 -8 -8 -7 -18 1 -11 9 -14 8 -14 -6 0 -14 -3 -15 -15 -5 -15 13 -19 8 -16 -22 1 -10 -3 -18 -8 -18 -6 0 -11 5 -11 11 0 6 -6 9 -12 7 -25 -9 -14 -33 15 -33 16 -1 27 4 27 12 0 18 10 16 26 -4 12 -17 13 -16 8 3 -5 18 0 23 28 29 18 4 49 7 68 8 19 0 29 2 23 4 -7 3 -13 11 -13 18 0 16 -14 27 -24 18z m-159 -80 c-4 -3 -7 0 -7 7 0 7 3 10 7 7 3 -4 3 -10 0 -14z"/> <path d="M2710 2267 c0 -5 5 -17 10 -28 6 -10 7 -19 2 -19 -5 0 -14 10 -21 23 -9 17 -10 17 -5 2 3 -11 8 -26 11 -33 3 -8 0 -10 -11 -6 -21 8 -49 -19 -34 -34 8 -8 19 -4 40 13 16 14 34 25 39 25 5 0 9 3 9 8 -1 10 -40 59 -40 49z"/> <path d="M520 2230 c0 -5 5 -10 10 -10 6 0 10 5 10 10 0 6 -4 10 -10 10 -5 0 -10 -4 -10 -10z"/> <path d="M2881 2224 c-84 -23 -191 -83 -252 -144 -135 -133 -169 -334 -100 -583 46 -167 174 -294 360 -358 30 -11 67 -19 83 -19 25 0 28 3 28 34 0 32 -2 34 -45 38 -104 12 -263 119 -317 214 l-17 30 185 103 c171 96 202 116 192 126 -1 2 -86 -43 -188 -101 -102 -57 -189 -102 -195 -101 -5 2 -18 35 -28 73 -33 120 -24 366 14 390 5 3 96 -47 204 -110 107 -63 195 -109 195 -103 0 7 -83 61 -185 121 -102 59 -188 112 -191 118 -9 14 34 71 81 108 67 53 159 93 268 115 22 4 27 11 27 35 0 27 -3 30 -32 29 -18 0 -57 -7 -87 -15z"/> <path d="M380 2210 c0 -5 4 -10 9 -10 5 0 21 -4 35 -10 24 -9 25 -12 14 -37 -7 -15 -13 -29 -14 -31 -1 -2 -19 4 -39 13 -21 8 -40 13 -43 10 -5 -5 75 -41 112 -51 17 -4 25 1 34 21 23 51 8 115 -20 87 -7 -7 -21 -6 -44 4 -40 17 -44 17 -44 4z m110 -30 c0 -5 -2 -10 -4 -10 -3 0 -8 5 -11 10 -3 6 -1 10 4 10 6 0 11 -4 11 -10z m-13 -27 c-4 -3 -10 -3 -14 0 -3 4 0 7 7 7 7 0 10 -3 7 -7z m-3 -34 c-6 -11 -24 -2 -24 11 0 5 7 7 15 4 8 -4 12 -10 9 -15z"/> <path d="M2624 2201 c3 -14 1 -30 -5 -37 -6 -8 -4 -16 8 -25 15 -12 16 -12 10 3 -4 12 -2 15 9 11 16 -6 19 13 3 22 -6 4 -15 17 -20 29 -9 20 -9 19 -5 -3z"/> <path d="M2554 2085 c-3 -14 -11 -22 -17 -18 -6 4 -8 0 -4 -9 7 -19 -26 -31 -42 -15 -8 8 -11 5 -11 -12 0 -12 4 -20 9 -16 5 3 12 1 16 -5 10 -16 25 -12 18 5 -3 9 -1 15 4 13 6 -2 23 11 39 28 28 29 29 33 12 43 -15 9 -19 7 -24 -14z"/> <path d="M418 2075 c-4 -4 -3 -16 3 -27 8 -15 7 -22 -6 -32 -15 -11 -15 -13 -1 -25 20 -17 51 -10 51 11 0 9 4 20 8 24 17 17 7 36 -18 32 -16 -3 -25 0 -27 9 -2 8 -6 12 -10 8z m47 -35 c-3 -5 -11 -10 -16 -10 -6 0 -7 5 -4 10 3 6 11 10 16 10 6 0 7 -4 4 -10z m-15 -40 c0 -5 -4 -10 -9 -10 -6 0 -13 5 -16 10 -3 6 1 10 9 10 9 0 16 -4 16 -10z"/> <path d="M2485 1960 c-3 -5 -1 -10 4 -10 6 0 11 5 11 10 0 6 -2 10 -4 10 -3 0 -8 -4 -11 -10z"/> <path d="M2438 1923 c3 -14 0 -23 -9 -23 -7 0 -3 -11 12 -26 l24 -26 -28 7 c-22 6 -26 4 -21 -8 3 -9 11 -18 19 -20 13 -5 24 13 42 69 9 28 8 32 -17 41 -25 9 -26 8 -22 -14z m19 -10 c-4 -3 -7 0 -7 7 0 7 3 10 7 7 3 -4 3 -10 0 -14z"/> <path d="M421 1908 l24 -19 -25 6 -25 7 23 -17 c28 -20 30 -40 3 -25 -24 12 -34 13 -27 1 4 -5 -12 -7 -36 -3 -39 5 -42 4 -30 -11 8 -9 29 -22 47 -28 28 -10 31 -14 19 -26 -8 -8 -24 -11 -41 -8 -26 5 -25 4 6 -10 56 -27 90 -30 97 -10 5 11 1 22 -10 30 -10 8 -12 15 -6 17 6 2 12 28 14 59 l3 56 -30 0 -29 0 23 -19z m-41 -68 c8 -5 11 -10 5 -10 -5 0 -17 5 -25 10 -8 5 -10 10 -5 10 6 0 17 -5 25 -10z m49 1 c8 -5 9 -11 3 -15 -5 -3 -15 1 -22 9 -14 16 -3 20 19 6z m16 -61 c3 -5 -1 -10 -9 -10 -8 0 -18 5 -21 10 -3 6 1 10 9 10 8 0 18 -4 21 -10z"/> <path d="M2392 1789 c16 -21 18 -31 10 -42 -9 -10 -8 -19 4 -35 14 -20 14 -22 0 -22 -9 0 -16 -4 -16 -8 0 -10 22 -32 32 -32 12 0 10 68 -3 75 -6 5 -4 12 7 20 30 22 24 42 -17 58 l-38 15 21 -29z m38 -20 c0 -6 -4 -7 -10 -4 -5 3 -10 11 -10 16 0 6 5 7 10 4 6 -3 10 -11 10 -16z m-10 -99 c0 -5 -2 -10 -4 -10 -3 0 -8 5 -11 10 -3 6 -1 10 4 10 6 0 11 -4 11 -10z"/> <path d="M351 1683 c13 -15 11 -16 -16 -9 -50 13 -18 -7 43 -26 62 -19 85 -23 63 -9 -9 6 -10 11 -2 15 6 4 11 12 11 17 0 5 -10 3 -23 -6 -22 -14 -25 -13 -47 10 -26 28 -51 35 -29 8z"/> <path d="M440 1696 c0 -2 11 -6 25 -8 13 -3 22 -1 19 3 -5 9 -44 13 -44 5z"/> <path d="M430 1612 c0 -7 -9 -12 -19 -12 -31 0 -33 -17 -6 -38 30 -24 33 -37 5 -22 -18 10 -20 8 -20 -20 l0 -31 -47 6 c-62 7 -26 -10 41 -20 53 -8 81 -1 69 17 -4 7 -8 37 -10 67 -1 29 -5 56 -8 59 -3 3 -5 0 -5 -6z m0 -44 c0 -13 -23 -5 -28 10 -2 7 2 10 12 6 9 -3 16 -11 16 -16z m5 -78 c3 -5 -3 -10 -14 -10 -12 0 -21 5 -21 10 0 6 6 10 14 10 8 0 18 -4 21 -10z"/> <path d="M2416 1574 c-4 -14 -11 -22 -16 -19 -17 10 -20 -13 -3 -26 12 -10 14 -10 9 -1 -5 8 -1 12 13 12 24 0 22 -27 -4 -46 -14 -10 -15 -14 -4 -14 18 1 78 28 62 29 -6 1 -10 12 -9 26 3 21 0 24 -20 19 -30 -8 -31 2 -3 25 20 16 20 17 1 18 -14 1 -22 -6 -26 -23z"/> <path d="M2456 1465 c4 -8 10 -15 16 -15 5 0 6 -6 2 -12 -5 -10 -4 -10 5 -2 14 13 4 44 -15 44 -8 0 -11 -6 -8 -15z"/> <path d="M2442 1404 c-7 -8 -8 -14 -3 -14 5 0 12 -8 14 -17 4 -15 5 -16 6 -2 0 9 11 19 23 22 26 7 38 -1 19 -12 -13 -9 -9 -13 20 -24 15 -5 15 -3 2 24 -12 23 -19 28 -35 23 -11 -3 -23 -2 -27 4 -4 6 -11 4 -19 -4z"/> <path d="M340 1400 c0 -5 14 -10 30 -10 17 0 31 -6 31 -12 1 -7 2 -17 4 -23 1 -5 3 -16 3 -22 1 -7 8 -13 15 -13 7 0 22 -7 33 -16 18 -15 18 -15 -8 -9 -23 4 -28 2 -28 -15 0 -25 46 -46 65 -30 11 9 10 17 -2 42 -9 17 -16 50 -16 74 l0 44 -63 0 c-36 0 -64 -4 -64 -10z m114 -15 c6 -16 -3 -19 -29 -9 -13 5 -14 8 -3 15 19 12 25 11 32 -6z m16 -115 c12 -8 11 -10 -7 -10 -13 0 -23 5 -23 10 0 13 11 13 30 0z"/> <path d="M2493 1319 c-2 -32 2 -34 50 -14 15 6 17 4 12 -18 -7 -25 -6 -26 29 -20 25 4 36 2 36 -7 0 -7 -7 -10 -15 -6 -18 6 -18 5 -5 -29 8 -20 15 -25 30 -20 13 4 20 2 20 -7 0 -22 14 -36 43 -43 22 -6 26 -4 21 9 -3 9 -17 19 -31 22 -19 5 -24 12 -21 29 4 17 1 21 -13 18 -12 -4 -18 2 -21 19 -2 15 -11 24 -25 26 -21 3 -28 17 -24 49 1 6 -7 9 -18 6 -10 -2 -22 0 -25 6 -15 24 -41 11 -43 -20z m32 -9 c-3 -5 -11 -10 -16 -10 -6 0 -7 5 -4 10 3 6 11 10 16 10 6 0 7 -4 4 -10z m42 -37 c-4 -3 -7 0 -7 7 0 7 3 10 7 7 3 -4 3 -10 0 -14z"/> <path d="M440 1201 c0 -6 10 -11 23 -12 21 0 21 -1 2 -9 -18 -7 -18 -8 7 -15 16 -4 25 -12 22 -17 -4 -6 -10 -6 -17 1 -18 18 -24 13 -19 -19 2 -16 9 -30 14 -30 7 0 6 -5 -1 -14 -18 -21 -2 -46 29 -46 38 0 50 -20 13 -21 -27 0 -27 -1 -5 -9 30 -13 51 -3 45 21 -3 10 -10 19 -15 19 -6 0 -7 7 -4 16 3 8 -2 26 -11 40 -9 14 -17 37 -18 50 -1 27 -11 39 -42 49 -14 4 -23 2 -23 -4z m59 -85 c10 -12 8 -13 -8 -9 -12 3 -21 9 -21 14 0 14 16 11 29 -5z m18 -33 c-4 -3 -10 -3 -14 0 -3 4 0 7 7 7 7 0 10 -3 7 -7z m-7 -19 c0 -2 -7 -4 -15 -4 -8 0 -15 4 -15 10 0 5 7 7 15 4 8 -4 15 -8 15 -10z"/> <path d="M2750 1160 c0 -5 4 -10 9 -10 6 0 13 5 16 10 3 6 -1 10 -9 10 -9 0 -16 -4 -16 -10z"/> <path d="M2784 1115 c8 -8 24 -15 35 -15 13 0 21 -6 21 -16 0 -14 3 -14 15 -4 14 11 19 7 16 -12 0 -5 5 -8 13 -8 8 0 16 -6 19 -12 2 -7 8 -1 12 15 7 26 25 38 25 16 0 -5 4 -8 9 -5 5 4 12 0 14 -6 4 -8 6 -7 6 4 1 25 -40 34 -56 12 -7 -10 -13 -13 -13 -7 0 6 -26 20 -59 32 -69 25 -77 26 -57 6z"/> <path d="M2923 1043 c4 -3 10 -3 14 0 3 4 0 7 -7 7 -7 0 -10 -3 -7 -7z"/> <path d="M567 944 c5 -13 2 -15 -15 -10 -11 4 -23 2 -27 -4 -4 -6 6 -13 24 -16 17 -4 31 -10 31 -14 0 -8 -11 -12 -85 -36 l-40 -12 45 -1 45 -2 -30 -15 -30 -14 28 5 c16 3 35 1 43 -6 10 -8 14 -8 14 0 0 6 15 12 33 13 27 1 26 2 -13 8 -39 6 -40 7 -12 8 38 2 44 22 5 22 -24 0 -25 1 -10 13 12 8 16 21 13 37 -2 14 -5 28 -5 33 -1 4 -5 7 -11 7 -5 0 -7 -7 -3 -16z"/> <path d="M2431 853 c-1 -16 -7 -23 -20 -23 -11 0 -22 -3 -24 -7 -7 -10 45 -10 61 0 8 6 12 2 12 -11 0 -16 5 -19 22 -14 14 3 19 2 14 -6 -4 -8 0 -12 12 -12 31 0 34 -12 10 -39 l-23 -25 29 22 c16 13 36 32 43 42 14 20 9 25 -24 21 -6 -1 -18 7 -25 18 -8 11 -27 21 -43 23 -17 2 -33 10 -37 18 -5 11 -7 9 -7 -7z m46 -40 c-4 -3 -7 0 -7 7 0 7 3 10 7 7 3 -4 3 -10 0 -14z"/> <path d="M2400 799 c0 -5 5 -7 10 -4 6 3 10 8 10 11 0 2 -4 4 -10 4 -5 0 -10 -5 -10 -11z"/> <path d="M650 786 c0 -2 7 -7 16 -10 8 -3 12 -2 9 4 -6 10 -25 14 -25 6z"/> <path d="M2600 770 c0 -4 -15 -23 -32 -42 -27 -27 -29 -30 -8 -16 36 22 63 26 76 10 9 -12 14 -12 32 -1 16 10 24 11 33 2 8 -8 7 -13 -2 -18 -8 -6 -10 -4 -4 5 5 9 4 11 -3 6 -17 -10 -15 -26 3 -26 9 0 18 7 21 15 7 18 -14 47 -27 39 -23 -14 -48 -12 -54 6 -6 19 -35 36 -35 20z m15 -20 c-3 -5 -11 -10 -16 -10 -6 0 -7 5 -4 10 3 6 11 10 16 10 6 0 7 -4 4 -10z"/> <path d="M615 740 c-3 -5 0 -7 8 -4 8 3 18 1 21 -4 3 -6 -1 -12 -9 -16 -25 -9 -17 -21 15 -21 17 0 30 3 30 8 0 4 -4 7 -9 7 -5 0 -11 9 -14 20 -5 21 -31 27 -42 10z"/> <path d="M2736 694 c-5 -13 -1 -15 19 -11 19 3 25 1 21 -9 -6 -15 12 -18 38 -8 24 9 20 37 -4 29 -11 -4 -20 -2 -20 4 0 17 -47 13 -54 -5z m84 -8 c0 -3 -5 -8 -12 -12 -7 -4 -8 -3 -4 4 7 12 16 16 16 8z"/> <path d="M2844 680 c-1 -17 3 -29 9 -27 17 5 18 21 5 40 -12 15 -13 14 -14 -13z"/> <path d="M636 681 c-11 -17 3 -31 29 -31 21 0 43 16 33 25 -10 11 -57 15 -62 6z m37 -18 c-7 -2 -19 -2 -25 0 -7 3 -2 5 12 5 14 0 19 -2 13 -5z"/> <path d="M2877 683 c10 -3 10 -10 2 -26 -10 -21 -10 -21 5 -3 21 26 20 36 -1 35 -11 0 -13 -3 -6 -6z"/> <path d="M2932 660 c-15 -25 -5 -26 21 -2 19 17 20 16 15 -15 -3 -24 -1 -30 7 -23 7 5 15 7 18 3 4 -3 7 7 7 23 0 25 -4 30 -28 32 -18 1 -31 -5 -40 -18z"/> <path d="M680 629 c-23 -6 -23 -7 -3 -8 12 -1 25 -6 29 -12 4 -8 -1 -9 -17 -4 -60 20 -188 0 -136 -21 24 -9 155 0 166 11 17 18 -11 42 -39 34z m-32 -36 c-15 -2 -42 -2 -60 0 -18 2 -6 4 27 4 33 0 48 -2 33 -4z"/> <path d="M700 523 c-102 -53 -64 -213 50 -213 19 0 41 4 49 9 10 7 28 0 60 -22 34 -23 41 -32 29 -35 -37 -7 -16 -22 32 -22 44 0 50 3 50 20 0 12 -8 35 -17 53 -16 30 -18 30 -21 9 -3 -22 -4 -22 -48 9 -37 25 -43 33 -34 49 18 34 12 97 -13 125 -29 35 -89 43 -137 18z m113 -26 c28 -20 31 -77 8 -115 -28 -44 -61 -58 -99 -43 -56 24 -72 114 -26 150 30 24 91 28 117 8z"/> <path d="M727 443 c-12 -12 -7 -41 7 -46 19 -7 40 18 32 38 -6 15 -28 20 -39 8z"/> <path d="M2827 513 c-4 -3 -10 -29 -13 -56 -6 -43 -8 -47 -16 -28 -9 25 -31 24 -36 -3 -2 -11 4 -19 17 -23 11 -3 18 -10 15 -15 -3 -5 -12 -7 -20 -4 -8 3 -14 0 -14 -5 0 -7 10 -9 28 -5 15 4 34 8 42 10 19 4 25 43 10 61 -7 9 -9 26 -5 45 7 30 4 36 -8 23z m-40 -90 c-4 -3 -10 -3 -14 0 -3 4 0 7 7 7 7 0 10 -3 7 -7z m50 -10 c-4 -3 -7 0 -7 7 0 7 3 10 7 7 3 -4 3 -10 0 -14z"/> <path d="M2940 460 c-15 -45 -18 -47 -35 -23 -11 15 -15 15 -29 4 -9 -7 -16 -22 -16 -33 0 -15 6 -18 28 -14 15 2 27 5 27 6 0 1 16 3 35 5 48 3 50 4 50 15 0 5 -7 7 -16 3 -12 -4 -14 0 -9 23 5 28 4 27 -10 -5 -20 -43 -31 -33 -15 14 7 20 10 38 8 41 -3 2 -11 -14 -18 -36z m-50 -40 c0 -5 -5 -10 -11 -10 -5 0 -7 5 -4 10 3 6 8 10 11 10 2 0 4 -4 4 -10z"/> <path d="M2505 375 c4 -42 4 -42 -33 12 -11 15 -11 15 -1 -6 6 -13 9 -35 7 -50 -2 -16 4 -33 15 -45 19 -18 19 -17 12 13 -8 36 1 41 15 9 7 -20 9 -20 9 -4 1 15 4 16 16 6 12 -10 20 -9 40 4 13 9 31 16 40 16 8 0 15 4 15 9 0 5 10 11 22 13 12 2 24 10 26 18 4 12 2 13 -10 3 -12 -10 -14 -9 -14 5 1 26 -19 30 -22 4 -2 -13 -9 -21 -15 -19 -7 2 -10 13 -9 23 3 16 1 17 -9 6 -11 -10 -11 -17 -2 -31 10 -15 9 -20 -2 -25 -10 -4 -15 1 -15 14 0 11 -7 20 -15 20 -8 0 -15 -4 -15 -10 0 -5 -8 -10 -19 -10 -12 0 -22 12 -29 33 l-12 32 5 -40z"/> <path d="M2110 107 c0 -4 7 -18 16 -32 12 -18 13 -28 5 -44 -16 -29 -14 -31 19 -31 37 0 38 11 3 58 -36 49 -43 57 -43 49z m47 -94 c-4 -3 -7 0 -7 7 0 7 3 10 7 7 3 -4 3 -10 0 -14z"/> <path d="M925 90 c-4 -6 6 -7 25 -4 35 7 41 -9 10 -28 -31 -19 -24 -28 9 -12 38 19 32 54 -10 54 -15 0 -31 -4 -34 -10z"/> <path d="M1018 38 c7 -7 12 -16 12 -22 0 -6 -5 -5 -12 2 -7 7 -20 12 -29 12 -20 0 -35 -18 -24 -28 3 -3 10 0 15 8 7 12 12 12 22 2 16 -16 47 -16 44 1 -3 19 -16 37 -29 37 -8 0 -8 -3 1 -12z"/> <path d="M2020 17 c0 -9 12 -14 30 -15 17 0 30 4 30 9 0 6 -4 8 -9 4 -5 -3 -12 -1 -16 5 -9 15 -35 12 -35 -3z"/> <path d="M2093 3 c4 -3 10 -3 14 0 3 4 0 7 -7 7 -7 0 -10 -3 -7 -7z"/> </g> </svg> 